<svg width="128" height="47" viewBox="0 0 128 47" fill="none" xmlns="http://www.w3.org/2000/svg">
<path d="M5.13503 0H0V35.945H5.13503V0Z" fill="#323264"/>
<path d="M35.4223 25.4178L35.679 22.8503C35.679 19.4098 34.5493 16.5342 32.2386 14.2235C29.9278 11.9127 27.0522 10.783 23.6118 10.783C20.1713 10.783 17.193 12.0154 14.7282 14.4802C12.2634 16.945 11.031 19.872 11.031 23.3638C11.031 26.9583 12.3148 30.0393 14.8309 32.6068C17.3471 35.1743 20.3767 36.4581 23.8685 36.4581C25.2036 36.4581 26.436 36.2527 27.6684 35.8932C28.9008 35.4824 29.9278 35.0716 30.6467 34.6608C31.417 34.1987 32.1872 33.6852 32.8548 33.1203C33.5223 32.5555 33.9845 32.1447 34.1899 31.8879C34.3953 31.6312 34.5493 31.4771 34.652 31.3231L31.3143 27.9853L30.544 28.961C30.0305 29.5772 29.1576 30.1934 27.9252 30.8609C26.6414 31.5285 25.3063 31.8366 23.8685 31.8366C21.8659 31.8366 20.1713 31.2204 18.7335 29.9366C17.2957 28.6529 16.4228 27.1637 16.166 25.4178H35.4223ZM23.6118 15.1478C25.5117 15.1478 27.0522 15.7126 28.336 16.791C29.5684 17.9207 30.3386 19.3071 30.6467 21.053H16.3714C16.8336 19.3071 17.6552 17.9207 18.9389 16.791C20.1713 15.7126 21.7632 15.1478 23.6118 15.1478Z" fill="#323264"/>
<path d="M59.3711 34.4554C59.3711 36.7148 58.7035 38.5634 57.3171 40.0012C55.982 41.3877 54.2874 42.1066 52.1821 42.1066C51.2578 42.1066 50.3335 41.9525 49.4605 41.6958C48.5876 41.439 47.92 41.1309 47.3552 40.7715C46.7903 40.412 46.2768 40.0526 45.7633 39.5904C45.3012 39.1283 44.9931 38.8202 44.839 38.6661C44.685 38.5121 44.5823 38.358 44.4796 38.2553L41.1418 41.5931L41.5526 42.1066C41.8094 42.466 42.2715 42.9282 42.8877 43.4417C43.5039 43.9038 44.2228 44.4173 45.0444 44.9308C45.866 45.393 46.893 45.8038 48.1768 46.1632C49.4605 46.5227 50.7956 46.7281 52.1821 46.7281C55.6739 46.7281 58.5495 45.547 60.9629 43.1849C63.325 40.7715 64.5061 37.8959 64.5061 34.404V11.2965H59.3711V13.864L58.4981 13.0938C57.9333 12.5803 57.0603 12.0668 55.8279 11.5533C54.5955 11.0398 53.2604 10.783 51.9253 10.783C48.793 10.783 46.1228 11.9641 43.812 14.3775C41.5013 16.791 40.3716 19.6666 40.3716 23.107C40.3716 26.5475 41.5013 29.4231 43.812 31.8365C46.1228 34.25 48.793 35.431 51.9253 35.431C52.7983 35.431 53.6199 35.3284 54.4928 35.1229C55.3144 34.8662 55.982 34.6094 56.5468 34.3527C57.1117 34.0959 57.6252 33.7878 58.0873 33.4284C58.5495 33.0689 58.9089 32.8122 59.0116 32.7095L59.3711 32.35V34.4554ZM45.5066 23.107C45.5066 20.9503 46.1741 19.1531 47.5606 17.6639C48.947 16.1748 50.5902 15.4045 52.4388 15.4045C54.2874 15.4045 55.9306 16.1748 57.3171 17.6639C58.6522 19.1531 59.3711 20.9503 59.3711 23.107C59.3711 25.2637 58.6522 27.061 57.3171 28.5501C55.9306 30.0393 54.2874 30.8095 52.4388 30.8095C50.5902 30.8095 48.947 30.0393 47.5606 28.5501C46.1741 27.061 45.5066 25.2637 45.5066 23.107Z" fill="#323264"/>
<path d="M91.3088 35.9446V20.026C91.3088 17.4072 90.3332 15.1991 88.4332 13.4532C86.5333 11.656 84.0685 10.783 81.0388 10.783C79.8577 10.783 78.6767 10.9371 77.547 11.2452C76.4173 11.6046 75.493 11.9641 74.8254 12.3749C74.1579 12.7857 73.4903 13.2478 72.8741 13.8127C72.2579 14.3262 71.8985 14.6856 71.6931 14.891C71.539 15.0964 71.385 15.2505 71.2823 15.4045L74.62 18.7423L75.2876 17.8693C75.6984 17.3045 76.4173 16.791 77.4956 16.2261C78.574 15.6613 79.755 15.4045 81.0388 15.4045C82.5279 15.4045 83.7604 15.8667 84.736 16.7396C85.7117 17.6126 86.1738 18.7423 86.1738 20.026L77.1875 21.5665C74.9795 21.926 73.1822 22.7989 71.9498 24.1854C70.6661 25.5719 69.9985 27.2664 69.9985 29.2691C69.9985 31.169 70.8201 32.8122 72.4633 34.25C74.1579 35.7392 76.2119 36.4581 78.728 36.4581C79.601 36.4581 80.4226 36.3554 81.2442 36.0986C82.1171 35.8932 82.7847 35.6365 83.3495 35.3797C83.9144 35.123 84.4279 34.8149 84.8901 34.4554C85.3522 34.096 85.6603 33.8392 85.8657 33.7365C86.0198 33.5825 86.1225 33.4284 86.1738 33.3771V35.9446H91.3088ZM79.4983 31.8366C78.1632 31.8366 77.0848 31.5285 76.3146 30.9123C75.493 30.2961 75.1335 29.5772 75.1335 28.7556C75.1335 27.8826 75.3903 27.1124 75.9551 26.5475C76.52 25.9827 77.2902 25.5719 78.2145 25.4178L86.1738 24.134V24.6475C86.1738 26.9583 85.609 28.7042 84.4279 29.988C83.2469 31.2204 81.6036 31.8366 79.4983 31.8366Z" fill="#323264"/>
<path d="M102.64 -3.8147e-06H97.5051V35.945H102.64V-3.8147e-06Z" fill="#323264"/>
<path d="M125.989 14.1208L125.681 13.7613C125.475 13.5559 125.167 13.2992 124.705 12.9397C124.243 12.5803 123.73 12.2722 123.165 11.9127C122.6 11.6046 121.83 11.3479 120.905 11.0911C119.981 10.8857 119.005 10.783 118.03 10.783C115.514 10.783 113.46 11.5019 111.816 12.9397C110.122 14.4289 109.3 16.0721 109.3 17.972C109.3 19.3585 109.608 20.4882 110.224 21.5152C110.841 22.4908 111.611 23.2097 112.587 23.6205C113.511 24.0827 114.538 24.5448 115.616 24.9043C116.695 25.2638 117.67 25.5719 118.646 25.8286C119.57 26.1367 120.34 26.4962 120.957 26.9583C121.573 27.4205 121.881 28.0367 121.881 28.7556C121.881 29.6799 121.522 30.4501 120.854 31.015C120.186 31.5285 119.159 31.8366 117.773 31.8366C116.643 31.8366 115.514 31.5285 114.435 31.015C113.357 30.4501 112.689 29.988 112.33 29.6285C112.022 29.2691 111.765 28.961 111.611 28.7556L108.273 32.0933L108.633 32.5555C108.889 32.8636 109.249 33.223 109.762 33.6338C110.327 34.096 110.943 34.5068 111.611 34.9176C112.33 35.3284 113.254 35.6878 114.333 35.9959C115.411 36.304 116.592 36.4581 117.773 36.4581C120.495 36.4581 122.754 35.6878 124.448 34.1987C126.143 32.7095 127.016 30.8609 127.016 28.7556C127.016 27.3691 126.708 26.1881 126.092 25.2638C125.475 24.2881 124.705 23.5692 123.73 23.107C122.805 22.5935 121.778 22.1827 120.7 21.8233C119.622 21.4638 118.646 21.1044 117.67 20.899C116.746 20.6422 115.976 20.2314 115.36 19.7693C114.743 19.3071 114.435 18.6909 114.435 17.972C114.435 17.3045 114.743 16.6883 115.411 16.1748C116.027 15.6613 116.9 15.4045 118.03 15.4045C118.851 15.4045 119.673 15.6099 120.443 15.9694C121.265 16.3288 121.83 16.6369 122.086 16.8937C122.343 17.1504 122.549 17.3558 122.651 17.4585L125.989 14.1208Z" fill="#323264"/>
</svg>
